<svg id="visual" viewBox="0 0 900 600" width="900" height="600" xmlns="http://www.w3.org/2000/svg" xmlns:xlink="http://www.w3.org/1999/xlink" version="1.1"><g stroke-width="0.1" stroke-linejoin="bevel"><path d="M484 297L407 279L406 384Z" fill="#ffbf78" stroke="#FFFFFF"></path><path d="M406 384L494 421L484 297Z" fill="#ff8430" stroke="#FFFFFF"></path><path d="M514 185L391 198L407 279Z" fill="#ff8430" stroke="#FFFFFF"></path><path d="M282 308L297 387L406 384Z" fill="#ff8430" stroke="#FFFFFF"></path><path d="M282 308L406 384L407 279Z" fill="#ff7d29" stroke="#FFFFFF"></path><path d="M406 384L395 500L494 421Z" fill="#ffb96f" stroke="#FFFFFF"></path><path d="M318 217L282 308L407 279Z" fill="#ffb96f" stroke="#FFFFFF"></path><path d="M594 383L593 299L484 297Z" fill="#ffa04e" stroke="#FFFFFF"></path><path d="M484 297L514 185L407 279Z" fill="#ff933f" stroke="#FFFFFF"></path><path d="M391 198L318 217L407 279Z" fill="#ffb367" stroke="#FFFFFF"></path><path d="M593 299L514 185L484 297Z" fill="#ffa04e" stroke="#FFFFFF"></path><path d="M494 421L594 383L484 297Z" fill="#ff7d29" stroke="#FFFFFF"></path><path d="M297 387L395 500L406 384Z" fill="#ffbf78" stroke="#FFFFFF"></path><path d="M494 421L617 497L594 383Z" fill="#ff8c37" stroke="#FFFFFF"></path><path d="M395 500L506 507L494 421Z" fill="#ff933f" stroke="#FFFFFF"></path><path d="M593 299L608 184L514 185Z" fill="#ff933f" stroke="#FFFFFF"></path><path d="M694 283L608 184L593 299Z" fill="#ffa656" stroke="#FFFFFF"></path><path d="M608 184L512 108L514 185Z" fill="#ffb367" stroke="#FFFFFF"></path><path d="M514 185L512 108L391 198Z" fill="#ffa656" stroke="#FFFFFF"></path><path d="M391 198L292 103L318 217Z" fill="#ff8430" stroke="#FFFFFF"></path><path d="M297 387L283 514L395 500Z" fill="#ffb367" stroke="#FFFFFF"></path><path d="M395 500L478 600L506 507Z" fill="#ffa656" stroke="#FFFFFF"></path><path d="M192 487L283 514L297 387Z" fill="#ffa656" stroke="#FFFFFF"></path><path d="M506 507L617 497L494 421Z" fill="#ff9946" stroke="#FFFFFF"></path><path d="M594 383L694 283L593 299Z" fill="#ff9946" stroke="#FFFFFF"></path><path d="M512 108L397 88L391 198Z" fill="#ff933f" stroke="#FFFFFF"></path><path d="M189 201L185 285L282 308Z" fill="#ffa04e" stroke="#FFFFFF"></path><path d="M282 308L184 418L297 387Z" fill="#ffb96f" stroke="#FFFFFF"></path><path d="M189 201L282 308L318 217Z" fill="#ffa656" stroke="#FFFFFF"></path><path d="M617 497L682 408L594 383Z" fill="#ff9946" stroke="#FFFFFF"></path><path d="M682 408L694 283L594 383Z" fill="#ff9946" stroke="#FFFFFF"></path><path d="M185 285L184 418L282 308Z" fill="#ffad5e" stroke="#FFFFFF"></path><path d="M301 600L409 600L395 500Z" fill="#ff8c37" stroke="#FFFFFF"></path><path d="M506 507L618 600L617 497Z" fill="#ff7d29" stroke="#FFFFFF"></path><path d="M397 88L292 103L391 198Z" fill="#ff8430" stroke="#FFFFFF"></path><path d="M409 600L478 600L395 500Z" fill="#ff9946" stroke="#FFFFFF"></path><path d="M220 114L189 201L318 217Z" fill="#ffb96f" stroke="#FFFFFF"></path><path d="M184 418L192 487L297 387Z" fill="#ffa04e" stroke="#FFFFFF"></path><path d="M283 514L301 600L395 500Z" fill="#ff9946" stroke="#FFFFFF"></path><path d="M689 113L602 96L608 184Z" fill="#ffbf78" stroke="#FFFFFF"></path><path d="M608 184L602 96L512 108Z" fill="#ff9946" stroke="#FFFFFF"></path><path d="M500 0L395 0L397 88Z" fill="#ffb96f" stroke="#FFFFFF"></path><path d="M694 283L684 178L608 184Z" fill="#ffb96f" stroke="#FFFFFF"></path><path d="M191 600L301 600L283 514Z" fill="#ffbf78" stroke="#FFFFFF"></path><path d="M617 497L691 489L682 408Z" fill="#ff7d29" stroke="#FFFFFF"></path><path d="M682 408L786 284L694 283Z" fill="#ff8430" stroke="#FFFFFF"></path><path d="M618 600L691 489L617 497Z" fill="#ffb96f" stroke="#FFFFFF"></path><path d="M292 103L220 114L318 217Z" fill="#ff8430" stroke="#FFFFFF"></path><path d="M478 600L618 600L506 507Z" fill="#ff7d29" stroke="#FFFFFF"></path><path d="M500 0L397 88L512 108Z" fill="#ffa656" stroke="#FFFFFF"></path><path d="M397 88L316 0L292 103Z" fill="#ffa04e" stroke="#FFFFFF"></path><path d="M292 103L203 0L220 114Z" fill="#ffad5e" stroke="#FFFFFF"></path><path d="M684 178L689 113L608 184Z" fill="#ffb367" stroke="#FFFFFF"></path><path d="M602 96L500 0L512 108Z" fill="#ff933f" stroke="#FFFFFF"></path><path d="M805 100L689 113L684 178Z" fill="#ffbf78" stroke="#FFFFFF"></path><path d="M80 216L103 284L189 201Z" fill="#ff933f" stroke="#FFFFFF"></path><path d="M189 201L103 284L185 285Z" fill="#ffa04e" stroke="#FFFFFF"></path><path d="M185 285L91 389L184 418Z" fill="#ffb367" stroke="#FFFFFF"></path><path d="M184 418L96 517L192 487Z" fill="#ff7d29" stroke="#FFFFFF"></path><path d="M610 0L500 0L602 96Z" fill="#ff933f" stroke="#FFFFFF"></path><path d="M103 284L91 389L185 285Z" fill="#ffb96f" stroke="#FFFFFF"></path><path d="M192 487L191 600L283 514Z" fill="#ffb367" stroke="#FFFFFF"></path><path d="M395 0L316 0L397 88Z" fill="#ff7d29" stroke="#FFFFFF"></path><path d="M811 405L786 284L682 408Z" fill="#ffa656" stroke="#FFFFFF"></path><path d="M694 283L810 216L684 178Z" fill="#ff9946" stroke="#FFFFFF"></path><path d="M96 517L191 600L192 487Z" fill="#ff933f" stroke="#FFFFFF"></path><path d="M93 104L80 216L189 201Z" fill="#ffbf78" stroke="#FFFFFF"></path><path d="M103 284L0 292L91 389Z" fill="#ffbf78" stroke="#FFFFFF"></path><path d="M93 104L189 201L220 114Z" fill="#ffa04e" stroke="#FFFFFF"></path><path d="M689 113L610 0L602 96Z" fill="#ffbf78" stroke="#FFFFFF"></path><path d="M691 489L811 405L682 408Z" fill="#ffb367" stroke="#FFFFFF"></path><path d="M811 515L811 405L691 489Z" fill="#ffbf78" stroke="#FFFFFF"></path><path d="M0 482L96 517L91 389Z" fill="#ff8430" stroke="#FFFFFF"></path><path d="M91 389L96 517L184 418Z" fill="#ff8430" stroke="#FFFFFF"></path><path d="M618 600L714 600L691 489Z" fill="#ff9946" stroke="#FFFFFF"></path><path d="M786 284L810 216L694 283Z" fill="#ff7d29" stroke="#FFFFFF"></path><path d="M689 113L719 0L610 0Z" fill="#ff8c37" stroke="#FFFFFF"></path><path d="M900 293L810 216L786 284Z" fill="#ffbf78" stroke="#FFFFFF"></path><path d="M316 0L203 0L292 103Z" fill="#ff933f" stroke="#FFFFFF"></path><path d="M203 0L93 104L220 114Z" fill="#ffad5e" stroke="#FFFFFF"></path><path d="M714 600L811 515L691 489Z" fill="#ffa04e" stroke="#FFFFFF"></path><path d="M96 517L101 600L191 600Z" fill="#ff7d29" stroke="#FFFFFF"></path><path d="M810 216L805 100L684 178Z" fill="#ff9946" stroke="#FFFFFF"></path><path d="M805 100L719 0L689 113Z" fill="#ff7d29" stroke="#FFFFFF"></path><path d="M0 215L0 292L80 216Z" fill="#ffa656" stroke="#FFFFFF"></path><path d="M80 216L0 292L103 284Z" fill="#ffb367" stroke="#FFFFFF"></path><path d="M96 517L0 600L101 600Z" fill="#ffb96f" stroke="#FFFFFF"></path><path d="M0 292L0 402L91 389Z" fill="#ff8c37" stroke="#FFFFFF"></path><path d="M0 97L0 215L80 216Z" fill="#ffa656" stroke="#FFFFFF"></path><path d="M0 402L0 482L91 389Z" fill="#ffb96f" stroke="#FFFFFF"></path><path d="M714 600L816 600L811 515Z" fill="#ffa04e" stroke="#FFFFFF"></path><path d="M900 383L900 293L811 405Z" fill="#ffa656" stroke="#FFFFFF"></path><path d="M811 405L900 293L786 284Z" fill="#ffb96f" stroke="#FFFFFF"></path><path d="M900 383L811 405L900 496Z" fill="#ff8c37" stroke="#FFFFFF"></path><path d="M810 216L900 198L805 100Z" fill="#ff933f" stroke="#FFFFFF"></path><path d="M900 496L811 405L811 515Z" fill="#ffa04e" stroke="#FFFFFF"></path><path d="M203 0L99 0L93 104Z" fill="#ff8430" stroke="#FFFFFF"></path><path d="M93 104L0 97L80 216Z" fill="#ffb96f" stroke="#FFFFFF"></path><path d="M900 293L900 198L810 216Z" fill="#ffad5e" stroke="#FFFFFF"></path><path d="M805 100L798 0L719 0Z" fill="#ff9946" stroke="#FFFFFF"></path><path d="M900 86L798 0L805 100Z" fill="#ff8430" stroke="#FFFFFF"></path><path d="M900 600L900 496L811 515Z" fill="#ff8c37" stroke="#FFFFFF"></path><path d="M99 0L0 97L93 104Z" fill="#ffa04e" stroke="#FFFFFF"></path><path d="M0 482L0 600L96 517Z" fill="#ff8c37" stroke="#FFFFFF"></path><path d="M900 198L900 86L805 100Z" fill="#ffa04e" stroke="#FFFFFF"></path><path d="M816 600L900 600L811 515Z" fill="#ffb367" stroke="#FFFFFF"></path><path d="M99 0L0 0L0 97Z" fill="#ffbf78" stroke="#FFFFFF"></path><path d="M900 86L900 0L798 0Z" fill="#ff7d29" stroke="#FFFFFF"></path></g></svg>